<?xml version="1.0" encoding="UTF-8" standalone="no"?>
<!-- Created with Inkscape (http://www.inkscape.org/) -->

<svg
   version="1.1"
   id="svg39"
   width="203.38438"
   height="182.73863"
   viewBox="0 0 203.38438 182.73863"
   sodipodi:docname="404.svg"
   inkscape:version="1.1.2 (1:1.1+202202050950+0a00cf5339)"
   inkscape:export-filename="/home/carlos/develop/four-engines-frontend/public/404.png"
   inkscape:export-xdpi="96"
   inkscape:export-ydpi="96"
   xmlns:inkscape="http://www.inkscape.org/namespaces/inkscape"
   xmlns:sodipodi="http://sodipodi.sourceforge.net/DTD/sodipodi-0.dtd"
   xmlns="http://www.w3.org/2000/svg"
   xmlns:svg="http://www.w3.org/2000/svg">
  <defs
     id="defs43" />
  <sodipodi:namedview
     id="namedview41"
     pagecolor="#ffffff"
     bordercolor="#666666"
     borderopacity="1.0"
     inkscape:pageshadow="2"
     inkscape:pageopacity="0.0"
     inkscape:pagecheckerboard="0"
     showgrid="false"
     showguides="true"
     inkscape:guide-bbox="true"
     inkscape:zoom="1.1234954"
     inkscape:cx="81.442252"
     inkscape:cy="173.12042"
     inkscape:window-width="1366"
     inkscape:window-height="697"
     inkscape:window-x="0"
     inkscape:window-y="0"
     inkscape:window-maximized="1"
     inkscape:current-layer="g45"
     fit-margin-top="0"
     fit-margin-left="0"
     fit-margin-right="0"
     fit-margin-bottom="0">
    <sodipodi:guide
       position="-325.7202,-46.149829"
       orientation="0,-1"
       id="guide16837" />
  </sodipodi:namedview>
  <g
     inkscape:groupmode="layer"
     inkscape:label="Image"
     id="g45"
     transform="translate(-56.974484,-49.297976)">
    <g
       id="g17966"
       transform="matrix(0.61269064,0,0,0.61269064,491.04166,53.695943)">
      <path
         sodipodi:type="star"
         style="fill:#ffffff;fill-opacity:1;stroke:#ffffff;stroke-width:80.428;stroke-linecap:round;stroke-linejoin:round;stroke-miterlimit:4;stroke-dasharray:none;stroke-opacity:1;stop-color:#000000"
         id="path17993"
         inkscape:flatsided="true"
         sodipodi:sides="3"
         sodipodi:cx="-542.48419"
         sodipodi:cy="178.25317"
         sodipodi:r1="145.22131"
         sodipodi:r2="72.610664"
         sodipodi:arg1="0.52359878"
         sodipodi:arg2="1.5707963"
         inkscape:rounded="0"
         inkscape:randomized="0"
         d="m -416.71885,250.86383 -251.53069,0 125.76535,-217.83197 z"
         inkscape:transform-center-y="-36.305331" />
      <path
         sodipodi:type="star"
         style="fill:#ed171f;fill-opacity:1;stroke:#ed171f;stroke-width:55.628;stroke-linecap:round;stroke-linejoin:round;stroke-miterlimit:4;stroke-dasharray:none;stroke-opacity:1;stop-color:#000000"
         id="path11689"
         inkscape:flatsided="true"
         sodipodi:sides="3"
         sodipodi:cx="-542.48419"
         sodipodi:cy="178.25317"
         sodipodi:r1="145.22131"
         sodipodi:r2="72.610664"
         sodipodi:arg1="0.52359878"
         sodipodi:arg2="1.5707963"
         inkscape:rounded="0"
         inkscape:randomized="0"
         d="m -416.71885,250.86383 -251.53069,0 125.76535,-217.83197 z"
         inkscape:transform-center-y="-36.305331" />
      <path
         sodipodi:type="star"
         style="fill:#feb82f;fill-opacity:1;stroke:none;stroke-width:35.5276;stroke-linecap:round;stroke-linejoin:round;stop-color:#000000"
         id="path9128"
         inkscape:flatsided="true"
         sodipodi:sides="3"
         sodipodi:cx="-542.48419"
         sodipodi:cy="178.25317"
         sodipodi:r1="145.22131"
         sodipodi:r2="72.610664"
         sodipodi:arg1="0.52359878"
         sodipodi:arg2="1.5707963"
         inkscape:rounded="0"
         inkscape:randomized="0"
         d="m -416.71885,250.86383 -251.53069,0 125.76535,-217.83197 z"
         inkscape:transform-center-y="-36.305331" />
      <path
         style="fill:#000000;stroke-width:1.33333"
         d="m -615.9973,244.66667 c 4.53275,-2.11397 9.00149,-4.31781 20,-7.96552 10.99852,-3.64769 19.9973,-7.0114 19.9973,-7.47489 0,-0.46349 -9.63159,-3.97012 -21.40353,-7.79248 -18.05216,-5.86157 -21.63886,-7.46625 -22.90644,-10.24829 -3.04782,-6.68925 3.93225,-9.14937 41.97664,-14.79467 8.71702,-1.2935 5.57516,1.85781 -6.33333,6.35237 -16.64675,6.28289 -15.97554,7.22736 11.27573,15.8662 22.33179,7.07932 26.17585,9.27688 22.43992,12.82834 -0.94361,0.89701 -6.86497,4.39049 -13.15857,7.76328 l -11.44294,5.46566 h -20.22374 c -11.12305,0 -20.22252,0.55 -20.22104,0 z m 110.66397,0 c 0.53114,-0.96741 0.82847,-1.47523 1.66667,-2.0074 2.66672,-0.83128 29.39289,-10.58216 30.93333,-12.08785 3.40871,-3.33179 0.27461,-4.01741 -79.26667,-17.34047 -24.77123,-4.14915 -25.01725,-6.08964 -1.33333,-10.51655 8.43333,-1.57632 18.80167,-3.51358 23.04073,-4.30504 7.7115,-1.43976 11.27714,-0.67577 7.58732,1.62568 -1.07876,0.67287 -6.16138,2.5447 -11.29472,4.15964 l -9.33333,2.93626 13.33333,1.67642 c 7.33334,0.92204 27.13334,3.24401 44,5.15993 16.86667,1.91592 31.9771,4.13728 33.57874,4.93634 1.60164,0.79908 3.60189,3.11823 4.44499,5.15366 1.90554,4.6004 0.49137,7.69913 -7.12372,15.60938 l -5.45523,5 h -22.38906 c -14.03714,0 -19.43022,0 -22.38905,0 z m -17.9524,-51.28073 c -1.55143,-1.71431 -2.16321,-3.9937 -1.77743,-6.62224 0.54047,-3.68244 0.14164,-4.16035 -4.90762,-5.8808 -5.02102,-1.71084 -5.76211,-1.65707 -8.57694,0.62222 -1.69457,1.37219 -4.08106,2.49488 -5.30332,2.49488 -3.40642,0 -7.91749,-3.69426 -8.39109,-6.87174 -0.30613,-2.05394 -1.99336,-3.3095 -6.04987,-4.50207 -5.14082,-1.51133 -5.69384,-1.43795 -6.42068,0.85212 -3.26691,10.29312 -16.78772,7.46125 -14.76468,-3.09237 0.46241,-2.41227 1.34658,-8.65719 1.96481,-13.87762 1.05534,-8.91136 4.39758,-16.36265 7.38592,-16.46642 0.66368,-0.0231 5.0307,-3.9419 9.70447,-8.70856 9.49522,-9.68393 10.04016,-9.83148 24.77691,-6.70868 14.26689,3.02324 24.97989,8.38614 27.15596,13.59421 1.00244,2.39919 1.82263,5.59641 1.82263,7.10495 0,1.50854 1.2,6.15702 2.66666,10.32994 3.48055,9.90279 3.38204,11.62927 -1.16088,20.34624 -2.102,4.03334 -4.54876,9.58794 -5.43725,12.34358 -2.43535,7.5532 -8.30443,9.8857 -12.6876,5.04236 z m 8.25765,-47.0526 c -0.77614,-3.11667 -2.06236,-6.11391 -2.85822,-6.66054 -3.50442,-2.40693 -16.41483,-6.50899 -23.56207,-7.48644 -7.64101,-1.04497 -7.88717,-0.97769 -12.01876,3.28503 l -4.21799,4.35185 7.1759,2.02366 c 3.94674,1.113 13.17589,3.79454 20.50922,5.959 17.57867,5.18836 16.65339,5.27937 14.97192,-1.47256 z"
         id="path16973"
         sodipodi:nodetypes="cssssssssscscccsssssscssssscscsssssssssscsssssssssssscscs" />
    </g>
  </g>
</svg>
